HIERARCHY
ROOT hip
{
	OFFSET 0.000000 0.000000 0.000000 
	CHANNELS 6 Xposition Yposition Zposition Xrotation Zrotation Yrotation
	JOINT abdomen
	{
		OFFSET 0.000000 3.402643 0.000000 
		CHANNELS 3 Xrotation Zrotation Yrotation
		JOINT chest
		{
			OFFSET 0.000000 8.438565 -0.680529 
			CHANNELS 3 Xrotation Zrotation Yrotation
			JOINT neck
			{
				OFFSET 0.000000 10.207942 -0.272212 
				CHANNELS 3 Xrotation Zrotation Yrotation
				JOINT head
				{
					OFFSET 0.000000 3.130431 0.000000 
					CHANNELS 3 Xrotation Zrotation Yrotation
					End Site
					{
						OFFSET 0.000000 3.130435 0.000000 
					}
				}
			}
			JOINT lCollar
			{
				OFFSET 3.470700 6.669187 -0.816635 
				CHANNELS 3 Yrotation Zrotation Xrotation
				JOINT lShldr
				{
					OFFSET 3.198488 0.000000 0.000000 
					CHANNELS 3 Zrotation Yrotation Xrotation
					JOINT lForeArm
					{
						OFFSET 10.139888 0.000000 0.000000 
						CHANNELS 3 Yrotation Zrotation Xrotation
						JOINT lHand
						{
							OFFSET 8.370511 0.000000 0.000000 
							CHANNELS 3 Zrotation Yrotation Xrotation
							End Site
							{
								OFFSET 4.083176 0.000000 0.000000 
							}
						}
					}
				}
			}
			JOINT rCollar
			{
				OFFSET -3.470700 6.669187 -0.816635 
				CHANNELS 3 Yrotation Zrotation Xrotation
				JOINT rShldr
				{
					OFFSET -3.198488 0.000000 0.000000 
					CHANNELS 3 Zrotation Yrotation Xrotation
					JOINT rForeArm
					{
						OFFSET -10.139888 0.000000 0.000000 
						CHANNELS 3 Yrotation Zrotation Xrotation
						JOINT rHand
						{
							OFFSET -8.370511 0.000000 0.000000 
							CHANNELS 3 Zrotation Yrotation Xrotation
							End Site
							{
								OFFSET -4.083176 0.000000 0.000000 
							}
						}
					}
				}
			}
		}
	}
	JOINT lThigh
	{
		OFFSET 5.308129 -1.633274 1.361059 
		CHANNELS 3 Xrotation Zrotation Yrotation
		JOINT lShin
		{
			OFFSET -2.041588 -20.007561 0.000000 
			CHANNELS 3 Xrotation Zrotation Yrotation
			JOINT lFoot
			{
				OFFSET 0.000000 -19.190928 -1.224953 
				CHANNELS 3 Xrotation Yrotation Zrotation
				End Site
				{
					OFFSET 0.000000 -2.449906 4.627600 
				}
			}
		}
	}
	JOINT rThigh
	{
		OFFSET -5.308129 -1.633274 1.361059 
		CHANNELS 3 Xrotation Zrotation Yrotation
		JOINT rShin
		{
			OFFSET 2.041588 -20.007561 0.000000 
			CHANNELS 3 Xrotation Zrotation Yrotation
			JOINT rFoot
			{
				OFFSET 0.000000 -19.190928 -1.224953 
				CHANNELS 3 Xrotation Yrotation Zrotation
				End Site
				{
					OFFSET 0.000000 -2.449906 4.627600 
				}
			}
		}
	}
}
MOTION
Frames: 11
Frame Time: 0.016667
0.143953 40.723461 1.588405 6.787360 0.494557 -5.917620 -11.579300 3.581180 -3.637300 21.046101 3.945170 -1.274330 -17.970800 5.865700 -5.811150 1.396640 8.238890 -1.370250 2.000000 -2.000000 0.000000 -95.512703 5.399420 -163.830002 86.416496 -0.223395 0.136495 -179.899994 -179.869003 -5.886510 -2.000000 2.000000 0.000000 77.987503 -1.067760 -148.391006 -88.682198 0.217993 0.136690 -0.087376 0.083116 -168.123001 -27.730833 10.618448 19.606165 61.025452 0.893323 4.088243 -15.073058 0.074607 0.743940 -6.830392 -7.454109 -3.143275 36.295589 -3.364054 -2.415956 -30.068674 -10.975130 -7.592713 
0.246436 40.624489 2.357664 7.021490 0.048462 -5.804570 -11.513600 3.682940 -1.988990 20.967699 3.808500 -0.479920 -18.753201 7.379460 -8.046170 1.254520 8.999090 -2.228450 2.000000 -2.000000 0.000000 -92.759598 6.462120 -164.593994 87.539597 -0.220719 0.136636 -179.895996 -179.865997 -7.839630 -2.000000 2.000000 0.000000 80.389397 0.113069 -147.988007 -86.553299 0.223069 0.136478 -0.085093 0.079224 -166.511993 -29.635832 13.090567 17.463240 58.460510 1.155804 3.936057 -15.367661 -0.182692 0.913717 -5.103880 -6.893451 -3.496992 34.272705 -3.523607 -2.277892 -29.853552 -12.168322 -8.145704 
0.386165 40.444950 3.136853 7.246310 -0.445631 -5.212990 -11.820200 3.579470 -0.570861 20.253401 3.398390 0.157835 -19.168699 9.191510 -10.855700 1.348350 9.887320 -3.338090 2.000000 -2.000000 0.000000 -89.967796 7.034590 -166.197006 88.408699 -0.218646 0.136709 0.108238 -0.127917 170.207001 -2.000000 2.000000 0.000000 83.065201 0.406195 -148.065002 -84.941902 0.226903 0.136193 -0.079502 0.068450 -162.175995 -31.676550 14.804343 13.613161 55.196316 1.495455 3.741239 -15.345843 0.160260 1.264535 -3.460683 -6.521662 -4.411387 32.630817 -3.597029 -2.185247 -29.565819 -12.513227 -8.358721 
0.500068 40.213299 3.920963 7.081470 -1.133860 -5.492580 -12.006200 3.654340 1.109200 19.353500 3.280530 0.927347 -20.156900 11.329100 -13.942700 1.340540 11.077400 -4.468940 2.000000 -2.000000 0.000000 -87.302803 6.941930 -168.248001 88.877502 -0.217528 0.136736 0.113865 -0.131989 167.727005 -2.000000 2.000000 0.000000 84.919899 1.557180 -147.389008 -83.428299 0.230496 0.135827 -0.076234 0.061045 -159.285004 -33.007927 16.980059 9.557641 51.857044 1.902150 3.503018 -13.640528 -0.218609 1.548777 -1.931236 -6.055949 -5.088000 31.600130 -3.641792 -2.097499 -29.310839 -12.307632 -8.262897 
0.640480 39.917816 4.774766 6.927310 -1.812850 -6.304400 -11.960900 4.043570 2.865550 18.844101 3.689760 1.755220 -20.918900 14.618500 -17.381901 1.726340 12.982700 -5.506000 2.000000 -2.000000 0.000000 -85.496902 6.106520 -170.520996 89.844299 -0.215221 0.136761 0.117292 -0.134292 166.251999 -2.000000 2.000000 0.000000 85.094498 2.473250 -146.440002 -83.066902 0.231352 0.135725 -0.076328 0.061272 -159.373001 -33.943146 19.284992 5.565453 48.775272 2.338492 3.240218 -9.890905 -0.762217 1.846797 -0.839914 -5.778396 -6.066663 31.518454 -3.663538 -2.084569 -28.943207 -13.113922 -8.673210 
0.802780 39.546257 5.535431 6.685560 -2.395730 -7.585590 -12.198600 3.792990 5.310540 17.623600 2.740550 2.887140 -21.174299 17.464899 -21.062401 2.421210 14.402000 -6.775850 2.000000 -2.000000 0.000000 -82.059601 4.414010 -171.815994 90.840401 -0.212701 0.156277 0.121873 -0.137178 164.319000 -2.000000 2.000000 0.000000 86.442101 2.756300 -146.360992 -82.881401 0.231792 0.135671 -0.077899 0.064943 -160.798996 -34.245049 21.347622 1.839610 46.538025 2.810620 3.006108 -7.073700 -0.840177 2.208845 -0.939037 -5.933812 -7.189172 33.626320 -3.579843 -2.221540 -29.247618 -12.847432 -8.649222 
1.008137 39.047554 6.260024 6.597920 -2.464060 -9.533120 -12.285100 3.576290 7.752220 16.618000 2.260280 4.014460 -20.973499 20.401800 -24.596300 3.621330 15.840200 -7.834940 2.000000 -2.000000 0.000000 100.538002 177.835999 6.694450 92.207603 -0.209207 0.156183 0.122177 -0.137362 164.192001 -2.000000 2.000000 0.000000 87.341698 3.685670 -147.179993 -82.764198 0.232069 0.135636 -0.078020 0.065218 -160.906006 -33.706646 23.165955 -0.482773 44.802010 3.072536 2.855526 -6.167521 0.062880 2.544041 -2.750513 -6.831528 -8.829727 38.289963 -3.361598 -2.501926 -31.900064 -11.676213 -8.722509 
1.297203 38.379749 7.026732 6.147510 -2.291450 -11.584800 -11.694400 2.545840 9.898200 16.708599 0.818463 5.032850 -22.517700 23.445801 -28.806101 4.625130 17.556400 -8.783990 2.000000 -2.000000 0.000000 103.428001 -177.598007 4.136200 93.086502 -0.206962 0.156079 0.125906 -0.139544 162.649002 -2.000000 2.000000 0.000000 88.751801 5.136840 -150.057007 -81.514198 0.235024 0.135228 -0.079084 0.067558 -161.824005 -31.917307 24.640816 -0.628645 44.689274 3.145084 2.856573 -6.992004 0.021760 2.843148 -4.766915 -8.543907 -10.626697 44.101528 -3.012517 -2.861188 -31.476244 -12.808613 -9.335934 
1.617514 37.786324 7.853036 5.421390 -1.331910 -13.105100 -11.251200 1.385440 11.520700 16.689400 -0.146151 5.761830 -25.457100 25.177500 -32.644600 4.582930 19.246000 -9.845220 2.000000 -2.000000 0.000000 105.458000 -174.076004 1.762170 94.844299 -0.202479 0.155768 0.128969 -0.141238 161.399002 -2.000000 2.000000 0.000000 90.132896 7.048030 -153.334000 -79.736900 0.239208 0.134537 -0.080895 0.071330 -163.317993 -30.021441 25.088213 1.892148 46.698498 3.023943 2.955114 -9.166159 -3.014345 2.676412 -6.398180 -12.676278 -15.224618 49.638477 -2.614526 -3.187799 -30.016481 -11.844104 -8.433486 
1.835820 37.428291 8.598389 3.711030 -0.399551 -14.733000 -10.787700 0.698986 12.721000 15.810500 -0.019464 6.241850 -27.764400 25.621599 -35.336399 4.286600 20.214100 -10.751900 2.000000 -2.000000 0.000000 105.760002 -170.925003 -1.052650 96.836502 -0.197412 0.155249 0.132020 -0.142840 160.167999 -2.000000 2.000000 0.000000 90.556000 9.045580 -155.820007 -76.514198 0.246732 0.132955 -0.083164 0.075728 -165.085999 -27.857771 25.376989 6.043602 49.800140 2.818773 3.120241 -10.907147 -5.066088 2.284064 -7.369953 -13.834922 -12.336337 54.386032 -2.317240 -3.415660 -27.305767 -17.470425 -10.181493 
1.945721 37.172607 9.263926 2.949600 0.926505 -14.512700 -10.732400 -0.072109 12.686300 14.775100 0.602389 6.091360 -28.877600 26.316000 -36.730400 4.247840 21.014999 -11.134000 2.000000 -2.000000 0.000000 105.572998 -167.764999 -3.642910 98.535698 -0.193107 0.154667 0.135227 -0.144435 158.889008 -2.000000 2.000000 0.000000 91.223099 9.901680 -158.764999 -73.057198 0.254691 0.130790 -0.084422 0.078033 -166.022995 -27.531239 24.313652 7.779933 52.593521 2.642882 3.261173 -12.408097 -5.762477 1.990709 -8.623487 -16.317051 -13.230740 58.523937 -2.003202 -3.624046 -23.847605 -18.405523 -9.184219 
